<svg width="20" height="20" viewBox="0 0 20 20" fill="none" xmlns="http://www.w3.org/2000/svg">
<g clip-path="url(#clip0)">
<path d="M17.5926 2.86102e-06C18.8909 2.86102e-06 19.938 0.947503 19.9999 2.0625V20L17.5279 18.1058L16.1705 16.9908L14.6894 15.8258L15.3081 17.6633H2.34532C1.0507 17.6633 -0.00012207 16.7758 -0.00012207 15.6V2.06666C-0.00012207 0.951663 1.05256 0.00250286 2.34995 0.00250286L17.5926 2.86102e-06L17.5926 2.86102e-06ZM11.9432 4.73584H11.9155L11.729 4.9025C13.6432 5.4025 14.5694 6.18334 14.5694 6.18334C13.3357 5.62668 12.2239 5.34834 11.1121 5.23584C10.3088 5.12334 9.50541 5.1825 8.8267 5.23584H8.64203C8.20804 5.23584 7.28463 5.4025 6.04727 5.84834C5.61605 6.0175 5.36857 6.12834 5.36857 6.12834C5.36857 6.12834 6.29382 5.29334 8.3327 4.8475L8.20804 4.735C8.20804 4.735 6.6641 4.68166 4.99736 5.79334C4.99736 5.79334 3.33063 8.41334 3.33063 11.6433C3.33063 11.6433 4.25404 13.0933 6.78692 13.1483C6.78692 13.1483 7.15629 12.7042 7.53027 12.3133C6.10822 11.9233 5.55417 11.1433 5.55417 11.1433C5.55417 11.1433 5.6779 11.1983 5.86351 11.31H5.91891C5.94661 11.31 5.95953 11.3225 5.97432 11.335V11.34C5.9891 11.3533 6.00202 11.365 6.02972 11.365C6.33444 11.4783 6.63917 11.59 6.88849 11.6983C7.3188 11.8667 7.87191 12.0342 8.55061 12.145C9.40938 12.2575 10.3937 12.3117 11.5147 12.145C12.0688 12.0325 12.6228 11.9225 13.1769 11.6992C13.537 11.5325 13.9802 11.3658 14.4669 11.085C14.4669 11.085 13.9128 11.865 12.4307 12.255C12.7355 12.6433 13.1649 13.0883 13.1649 13.0883C15.6987 13.0383 16.683 11.5883 16.7384 11.65C16.7384 8.425 15.0625 5.8 15.0625 5.8C13.5527 4.78834 12.1399 4.75 11.8906 4.75L11.9423 4.73334L11.9432 4.73584ZM12.0983 8.41334C12.7475 8.41334 13.2711 8.91334 13.2711 9.52584C13.2711 10.1425 12.7447 10.6425 12.0983 10.6425C11.4519 10.6425 10.9256 10.1425 10.9256 9.53084C10.9274 8.91418 11.4547 8.41584 12.0983 8.41584V8.41334ZM7.90329 8.41334C8.54968 8.41334 9.07232 8.91334 9.07232 9.52584C9.07232 10.1425 8.54598 10.6425 7.89959 10.6425C7.2532 10.6425 6.72686 10.1425 6.72686 9.53084C6.72686 8.91418 7.2532 8.41584 7.89959 8.41584L7.90329 8.41334Z" fill="#F1E3FF"/>
</g>
<defs>
<clipPath id="clip0">
<rect width="20" height="20" fill="white"/>
</clipPath>
</defs>
</svg>
