<svg width="22" height="22" viewBox="0 0 22 22" fill="none" xmlns="http://www.w3.org/2000/svg">
<path d="M18.3334 13.75V17.4167C18.3334 17.6697 18.2316 17.8979 18.0648 18.0647C17.898 18.2316 17.6697 18.3333 17.4167 18.3333H4.58337C4.33037 18.3333 4.10212 18.2316 3.93529 18.0647C3.76846 17.8979 3.66671 17.6697 3.66671 17.4167V13.75C3.66671 13.244 3.25604 12.8333 2.75004 12.8333C2.24404 12.8333 1.83337 13.244 1.83337 13.75V17.4167C1.83337 18.1757 2.14229 18.865 2.63912 19.3609C3.13596 19.8568 3.82437 20.1667 4.58337 20.1667H17.4167C18.1757 20.1667 18.865 19.8577 19.361 19.3609C19.8569 18.8641 20.1667 18.1757 20.1667 17.4167V13.75C20.1667 13.244 19.756 12.8333 19.25 12.8333C18.744 12.8333 18.3334 13.244 18.3334 13.75ZM11.9167 11.5372V2.74999C11.9167 2.24399 11.506 1.83333 11 1.83333C10.494 1.83333 10.0834 2.24399 10.0834 2.74999V11.5372L7.06479 8.51858C6.70637 8.16016 6.12612 8.16016 5.76862 8.51858C5.41112 8.877 5.41021 9.45724 5.76862 9.81474L10.352 14.3981C10.4363 14.4824 10.5371 14.5502 10.649 14.597C10.7608 14.6437 10.8809 14.6667 11 14.6667C11.2347 14.6667 11.4694 14.5768 11.6481 14.3981L16.2315 9.81474C16.5899 9.45633 16.5899 8.87608 16.2315 8.51858C15.873 8.16108 15.2928 8.16016 14.9353 8.51858L11.9167 11.5372Z" fill="#F1E3FF"/>
</svg>
