<svg width="25" height="25" viewBox="0 0 25 25" fill="none" xmlns="http://www.w3.org/2000/svg">
<path d="M12.9522 15.25L14.3829 13.6847L12.5082 11.6335L11.0775 13.1989V13.9545H12.2615V15.25H12.9522ZM18.379 5.53409C18.268 5.41264 18.083 5.42614 17.972 5.54759L13.6552 10.2706C13.5442 10.392 13.5319 10.5945 13.6429 10.7159C13.7539 10.8374 13.9389 10.8239 14.0499 10.7024L18.3666 5.9794C18.4776 5.85795 18.49 5.65554 18.379 5.53409ZM19.3657 13.5497V16.1136C19.3657 18.2592 17.7746 20 15.8136 20H5.55207C3.59103 20 2 18.2592 2 16.1136V4.88636C2 2.74077 3.59103 1 5.55207 1H15.8136C16.3069 1 16.8003 1.10795 17.2566 1.33736C17.3676 1.39134 17.454 1.51278 17.4786 1.64773C17.5033 1.79616 17.4663 1.93111 17.3676 2.03906L16.7633 2.70028C16.6523 2.82173 16.5043 2.86222 16.3686 2.80824C16.1836 2.75426 15.9986 2.72727 15.8136 2.72727H5.55207C4.46671 2.72727 3.5787 3.69886 3.5787 4.88636V16.1136C3.5787 17.3011 4.46671 18.2727 5.55207 18.2727H15.8136C16.8989 18.2727 17.787 17.3011 17.787 16.1136V14.4134C17.787 14.3054 17.824 14.1974 17.898 14.1165L18.6873 13.2528C18.8107 13.1179 18.971 13.0909 19.119 13.1584C19.267 13.2259 19.3657 13.3743 19.3657 13.5497ZM18.1816 3.59091L21.7337 7.47727L13.4455 16.5455H9.89348V12.6591L18.1816 3.59091ZM23.6577 5.37216L22.5231 6.61364L18.971 2.72727L20.1057 1.4858C20.562 0.986506 21.3267 0.986506 21.783 1.4858L23.6577 3.53693C24.1141 4.03622 24.1141 4.87287 23.6577 5.37216Z" fill="#F1E3FF"/>
</svg>
