<svg width="20" height="20" viewBox="0 0 20 20" fill="none" xmlns="http://www.w3.org/2000/svg">
<g clip-path="url(#clip0)">
<path fill-rule="evenodd" clip-rule="evenodd" d="M2.22222 0C0.994923 0 0 0.994923 0 2.22222V7.18954C0 8.41684 0.994923 9.41177 2.22222 9.41177H7.18954C8.41684 9.41177 9.41177 8.41684 9.41177 7.18954V2.22222C9.41177 0.994923 8.41684 0 7.18954 0H2.22222ZM12.8105 0C11.5832 0 10.5882 0.994923 10.5882 2.22222V7.18954C10.5882 8.41684 11.5832 9.41177 12.8105 9.41177H17.7778C19.0051 9.41177 20 8.41684 20 7.18954V2.22222C20 0.994923 19.0051 0 17.7778 0H12.8105ZM0 12.8105C0 11.5832 0.994923 10.5882 2.22222 10.5882H7.18954C8.41684 10.5882 9.41177 11.5832 9.41177 12.8105V17.7778C9.41177 19.0051 8.41684 20 7.18954 20H2.22222C0.994923 20 0 19.0051 0 17.7778V12.8105ZM12.8105 10.5882C11.5832 10.5882 10.5882 11.5832 10.5882 12.8105V17.7778C10.5882 19.0051 11.5832 20 12.8105 20H17.7778C19.0051 20 20 19.0051 20 17.7778V12.8105C20 11.5832 19.0051 10.5882 17.7778 10.5882H12.8105Z" fill="#F1E3FF"/>
</g>
<defs>
<clipPath id="clip0">
<rect width="20" height="20" fill="white"/>
</clipPath>
</defs>
</svg>
