<svg width="20" height="20" viewBox="0 0 20 20" fill="none" xmlns="http://www.w3.org/2000/svg">
<path d="M11.6667 16.25V13.75C11.6667 13.5156 11.4844 13.3333 11.25 13.3333H8.75C8.51562 13.3333 8.33333 13.5156 8.33333 13.75V16.25C8.33333 16.4844 8.51562 16.6667 8.75 16.6667H11.25C11.4844 16.6667 11.6667 16.4844 11.6667 16.25ZM15 7.5C15 5.11719 12.5 3.33333 10.2604 3.33333C8.13802 3.33333 6.54948 4.24479 5.42969 6.10677C5.3125 6.28906 5.36458 6.52344 5.53385 6.65365L7.2526 7.95573C7.31771 8.00781 7.40885 8.03385 7.5 8.03385C7.61719 8.03385 7.7474 7.98177 7.82552 7.8776C8.4375 7.09635 8.69792 6.86198 8.94531 6.67969C9.16667 6.52344 9.59635 6.36719 10.0651 6.36719C10.8984 6.36719 11.6667 6.90104 11.6667 7.47396C11.6667 8.15104 11.3151 8.48958 10.5208 8.85417C9.59635 9.27083 8.33333 10.3516 8.33333 11.6146V12.0833C8.33333 12.3177 8.51562 12.5 8.75 12.5H11.25C11.4844 12.5 11.6667 12.3177 11.6667 12.0833C11.6667 11.7839 12.0443 11.1458 12.6562 10.7943C13.6458 10.2344 15 9.47917 15 7.5ZM20 10C20 15.5208 15.5208 20 10 20C4.47917 20 0 15.5208 0 10C0 4.47917 4.47917 0 10 0C15.5208 0 20 4.47917 20 10Z" fill="#F1E3FF"/>
</svg>
