<svg width="26" height="22" viewBox="0 0 26 22" fill="none" xmlns="http://www.w3.org/2000/svg">
<path d="M11.3634 1.87602C11.1894 2.17415 10.8416 2.77663 10.5543 3.27041C10.4332 3.48004 10.2314 3.82941 10.104 4.0468C9.97826 4.26419 9.75932 4.64151 9.61801 4.88529C9.34317 5.35889 9.1087 5.76261 8.74845 6.38372C8.62578 6.59645 8.42391 6.94272 8.3028 7.15234C8.18168 7.36197 7.97981 7.71134 7.85248 7.92873C7.50311 8.53276 6.86491 9.63367 6.55745 10.1647C6.46118 10.3309 6.34472 10.5296 6.29969 10.6073C6.25466 10.6833 6.11491 10.9256 5.98758 11.143C5.8618 11.3604 5.67236 11.6895 5.56522 11.8728C5.45963 12.056 5.28106 12.3634 5.17081 12.556C5.05901 12.7485 4.92081 12.9861 4.86335 13.0839C4.8059 13.1818 4.64441 13.4613 4.50311 13.705C4.3618 13.9488 4.19565 14.2345 4.13354 14.3417C4.07143 14.4488 3.95497 14.6507 3.87267 14.792C3.79193 14.9333 3.65373 15.1709 3.56677 15.3199C3.17547 15.9907 3 16.2982 3 16.3137C3 16.323 3.07143 16.4581 3.15683 16.6134C3.31522 16.8975 3.76242 17.7065 4.22516 18.5419L4.4736 18.9922L12.9332 18.9953L21.3929 19L21.4674 18.8711C21.5078 18.8012 21.6335 18.5932 21.7453 18.4099C21.8571 18.2267 22.0202 17.9565 22.1071 17.8121C22.1941 17.6662 22.3665 17.3836 22.4876 17.1833C22.8944 16.514 23 16.3354 23 16.3168C23 16.2997 22.9053 16.1274 22.2966 15.0482C22.1429 14.7749 21.8929 14.3308 21.7422 14.0622C21.5916 13.7936 21.3385 13.3464 21.1832 13.0684C21.0264 12.7905 20.7748 12.3433 20.6242 12.0746C20.472 11.806 20.2236 11.3619 20.0699 11.0886C19.7702 10.5576 19.427 9.94889 18.955 9.10884C18.4099 8.13835 18.1304 7.64302 17.837 7.12129C17.5435 6.59956 17.264 6.10422 16.7189 5.13374C16.2842 4.36201 15.9177 3.70985 15.6087 3.16172C15.4581 2.89309 15.205 2.44123 15.0466 2.16018L14.7578 1.64776L13.1289 1.64311L11.5 1.64L11.3634 1.87602ZM14.4255 2.23316C14.4332 2.24403 14.5776 2.49713 14.7438 2.79682C14.9099 3.09495 15.177 3.57476 15.3385 3.86047C15.4984 4.14618 15.7562 4.60735 15.9115 4.88529C16.0668 5.16324 16.3292 5.63063 16.4938 5.92565C16.6599 6.22068 16.9208 6.68807 17.0761 6.96601C17.3509 7.45669 17.6149 7.92873 18.2329 9.0312C18.3975 9.32623 18.6599 9.79361 18.8152 10.0716C18.9705 10.3495 19.2329 10.8169 19.3975 11.1119C19.5621 11.4069 19.8245 11.8743 19.9798 12.1523C20.1351 12.4302 20.3975 12.8976 20.5621 13.1926C20.941 13.8696 21.3742 14.6445 21.6863 15.2019C21.8199 15.441 21.9415 15.7314 21.9384 15.733C21.9338 15.7392 10.2314 15.7392 10.2252 15.733C10.2205 15.7299 10.3121 15.5699 10.6739 14.955C11.028 14.3494 11.3634 13.7796 11.4177 13.6864L11.4705 13.5964H14.8587H18.2469L17.9581 13.0793C17.7997 12.7967 17.5373 12.3262 17.3742 12.0358C16.7329 10.8883 16.3804 10.2594 15.6165 8.89145C15.0807 7.93184 14.7252 7.2983 14.441 6.78744C14.2826 6.50484 14.0186 6.03435 13.854 5.73932C13.6894 5.44429 13.4255 4.97225 13.2671 4.6912C12.8773 3.99245 12.4224 3.18035 12.1289 2.65241L11.8851 2.21453H13.1475C14.1382 2.21453 14.413 2.21918 14.4255 2.23316ZM11.5559 3.0406C11.6413 3.18811 11.8292 3.5142 12.1739 4.10891C12.2811 4.29214 12.4581 4.59958 12.5699 4.79213C12.6801 4.98467 12.8043 5.1974 12.8447 5.26573C12.8851 5.33405 12.9845 5.50485 13.0652 5.64615C13.2857 6.02814 13.6599 6.67564 13.7531 6.83403C13.7981 6.91011 13.9146 7.11042 14.0109 7.27657C14.2407 7.67563 14.5714 8.24705 14.8556 8.73617C14.9814 8.95356 15.1755 9.28896 15.2873 9.4815C15.3975 9.67405 15.5217 9.88678 15.5621 9.9551C15.6025 10.0234 15.7019 10.1942 15.7826 10.3355C16.0031 10.7206 16.3773 11.365 16.4705 11.5234C16.5528 11.6616 16.6506 11.8324 17.1258 12.6538C17.2578 12.8836 17.3634 13.0731 17.3602 13.0746C17.3571 13.0762 16.8012 13.0731 16.1242 13.0684L14.8913 13.0606L14.6894 12.7113C14.5776 12.5187 14.4394 12.2812 14.382 12.1833C14.3245 12.0855 14.1242 11.7423 13.9394 11.4225C13.7531 11.1026 13.5543 10.7594 13.4969 10.6616C13.4394 10.5638 13.3028 10.3293 13.1941 10.1414C12.7717 9.41473 12.6087 9.13213 12.3634 8.71288C12.2236 8.47375 12.0109 8.1073 11.8898 7.89767C11.5171 7.25483 11.4705 7.17874 11.455 7.17253C11.4457 7.17098 11.3804 7.26725 11.309 7.38992C11.2376 7.51103 11.0776 7.78122 10.9534 7.99084C10.7236 8.37903 10.5186 8.72841 10.2019 9.26411C9.92547 9.73305 9.62888 10.233 9.41304 10.5995C9.30435 10.7827 9.09783 11.1321 8.95497 11.3759C8.81211 11.6197 8.60559 11.969 8.49689 12.1523C8.2795 12.5187 7.99379 13.0016 7.71584 13.4752C7.47205 13.8883 7.21429 14.3246 6.9705 14.7376C6.61646 15.337 6.38199 15.7345 6.11335 16.1895C5.96894 16.4333 5.76398 16.7826 5.65528 16.9659C5.54658 17.1491 5.36491 17.4565 5.25155 17.6491C5.1382 17.8416 4.99689 18.0808 4.93634 18.1817C4.87733 18.2826 4.82298 18.3603 4.81677 18.3525C4.80435 18.3385 4.75932 18.2609 4.29658 17.4317C4.13199 17.1367 3.93323 16.7811 3.85404 16.6398L3.70963 16.3836L3.74068 16.3292C3.75621 16.2997 3.99379 15.8867 4.26553 15.4131C4.53727 14.9395 4.86646 14.3665 4.99534 14.1398C5.39441 13.4442 5.82143 12.6973 6.13975 12.1445C6.96273 10.7113 7.29037 10.1383 7.89907 9.07778C8.02795 8.85108 8.30124 8.37593 8.50466 8.0219C9.21429 6.78434 9.60714 6.10112 9.84006 5.69274C10.0947 5.2502 10.4565 4.61667 11.0668 3.55457C11.278 3.18501 11.4565 2.88533 11.4627 2.88998C11.4689 2.89309 11.5109 2.96141 11.5559 3.0406ZM11.5109 8.32003C11.5497 8.38214 11.8401 8.85884 12.1537 9.38057L12.7252 10.3262L12.6879 10.3976C12.6522 10.4613 12.5186 10.6911 11.9363 11.6864C11.8245 11.879 11.618 12.2315 11.4783 12.4706C11.3385 12.7097 11.1429 13.0451 11.0435 13.2159C10.9441 13.3867 10.7484 13.7221 10.6087 13.9613C10.1071 14.8215 9.98913 15.0233 9.74379 15.4442C9.60714 15.6786 9.43168 15.9799 9.35404 16.1118C9.2764 16.2438 9.21894 16.3587 9.22516 16.3649C9.23137 16.3712 11.2143 16.3696 13.6304 16.3603C16.0466 16.351 18.9845 16.3448 20.1599 16.3479L22.2966 16.3525L21.6848 17.3618C21.3478 17.9162 21.0025 18.4193 20.9947 18.4317C20.9838 18.4503 13.2609 18.427 13.2609 18.427C8.97981 18.4317 5.4736 18.4332 5.4705 18.4317C5.46739 18.4286 5.50621 18.3587 5.55435 18.2749C5.60404 18.191 5.72981 17.9752 5.83385 17.7966C5.93789 17.6165 6.13665 17.2749 6.2764 17.0357C6.41615 16.7966 6.62578 16.4364 6.74224 16.2361C7.31056 15.2578 7.42391 15.0637 7.65839 14.66C7.79814 14.4209 7.99689 14.0777 8.10093 13.8991C8.20497 13.719 8.3913 13.4023 8.51242 13.1926C8.63354 12.983 8.81988 12.6647 8.92391 12.4861C9.02795 12.306 9.22671 11.9644 9.36646 11.7253C9.60093 11.3215 9.71429 11.1274 10.2826 10.1492C10.3991 9.94889 10.6087 9.58864 10.7484 9.34952C10.8882 9.11039 11.0885 8.76412 11.1957 8.5809C11.4286 8.17873 11.4208 8.1927 11.4317 8.20047C11.4363 8.20357 11.472 8.25637 11.5109 8.32003ZM13.1009 11.1476C13.1506 11.2346 13.2888 11.4706 13.4053 11.6709C13.6848 12.1523 14.0994 12.8665 14.1693 12.983L14.2236 13.0762L13.6863 13.0793C13.3898 13.0824 12.0621 13.0901 11.6801 13.0839L11.7593 13.0606L11.8571 12.8976C11.9115 12.8075 12.0792 12.5249 12.2314 12.2687C12.3835 12.0125 12.5792 11.6833 12.6646 11.5389C12.7516 11.393 12.8602 11.2097 12.9068 11.1305C12.9534 11.0529 12.9953 10.9877 13 10.9877C13.0047 10.9877 13.0497 11.0591 13.1009 11.1476Z" fill="#F1E3FF"/>
</svg>
