<svg width="26" height="26" viewBox="0 0 26 26" fill="none" xmlns="http://www.w3.org/2000/svg">
<g clip-path="url(#clip0)">
<g filter="url(#filter0_d)">
<path d="M3.375 14.1875H11.625V22.3125C11.625 23.06 12.241 23.6667 13 23.6667C13.759 23.6667 14.375 23.06 14.375 22.3125V14.1875H22.625C23.384 14.1875 24 13.5808 24 12.8333C24 12.0858 23.384 11.4792 22.625 11.4792H14.375V3.35417C14.375 2.60667 13.759 2 13 2C12.241 2 11.625 2.60667 11.625 3.35417V11.4792H3.375C2.616 11.4792 2 12.0858 2 12.8333C2 13.5808 2.616 14.1875 3.375 14.1875Z" fill="#F1E3FF"/>
</g>
</g>
<defs>
<filter id="filter0_d" x="-2" y="2" width="30" height="29.6667" filterUnits="userSpaceOnUse" color-interpolation-filters="sRGB">
<feFlood flood-opacity="0" result="BackgroundImageFix"/>
<feColorMatrix in="SourceAlpha" type="matrix" values="0 0 0 0 0 0 0 0 0 0 0 0 0 0 0 0 0 0 127 0"/>
<feOffset dy="4"/>
<feGaussianBlur stdDeviation="2"/>
<feColorMatrix type="matrix" values="0 0 0 0 0 0 0 0 0 0 0 0 0 0 0 0 0 0 0.25 0"/>
<feBlend mode="normal" in2="BackgroundImageFix" result="effect1_dropShadow"/>
<feBlend mode="normal" in="SourceGraphic" in2="effect1_dropShadow" result="shape"/>
</filter>
<clipPath id="clip0">
<rect width="26" height="26" fill="white"/>
</clipPath>
</defs>
</svg>
