<svg width="22" height="22" viewBox="0 0 22 22" fill="none" xmlns="http://www.w3.org/2000/svg">
<g clip-path="url(#clip0)">
<path d="M16.0291 2.25683L15.754 2.53249V2.25683H14.3987C13.7876 3.2011 12.4975 3.85382 10.9997 3.85382C9.50247 3.85382 8.21238 3.2011 7.60131 2.25683H6.24601V2.53249L5.97034 2.25683L1.09607 7.13384L3.76229 9.80225L6.24601 7.31744V19.7426H15.7529V7.31798L18.2371 9.8028L20.9028 7.13384L16.0291 2.25683Z" fill="#F1E3FF"/>
<path d="M15.7529 20.8387H6.24608C5.64104 20.8387 5.15 20.3477 5.15 19.7426V9.96448L4.53729 10.5772C4.33177 10.7833 4.05282 10.8983 3.76181 10.8983C3.47135 10.8983 3.19185 10.7827 2.98633 10.5772L0.320116 7.90878C-0.107356 7.48076 -0.107356 6.78749 0.320116 6.35892L5.19549 1.4819C5.43334 1.24351 5.77696 1.12787 6.10797 1.16952C6.15346 1.16404 6.1995 1.16075 6.24608 1.16075H7.60139C7.97296 1.16075 8.31987 1.34928 8.52155 1.66111C8.95285 2.32753 9.92562 2.75774 10.9998 2.75774C12.0739 2.75774 13.0473 2.32753 13.4786 1.66111C13.6803 1.34928 14.0266 1.16075 14.3987 1.16075H15.754C15.8006 1.16075 15.8467 1.16349 15.8921 1.16952C15.9371 1.16404 15.9826 1.16075 16.0286 1.16075C16.0292 1.16075 16.0292 1.16075 16.0292 1.16075C16.3196 1.16075 16.5986 1.27639 16.8046 1.4819L21.6789 6.35837C22.1064 6.78639 22.1064 7.47966 21.6789 7.90823L19.0132 10.5772C18.8077 10.7827 18.5288 10.8983 18.2383 10.8983C18.2378 10.8983 18.2378 10.8983 18.2378 10.8983C17.9473 10.8989 17.6683 10.7833 17.4628 10.5777L16.8496 9.96393V19.7426C16.849 20.3482 16.3585 20.8387 15.7529 20.8387ZM7.34216 18.6465H14.6569V7.31799C14.6569 6.87462 14.9238 6.4751 15.3331 6.30521C15.7431 6.13477 16.2138 6.22903 16.5279 6.54306L18.2367 8.25185L19.3536 7.13385L15.8467 3.62474C15.6718 3.64064 15.4997 3.61323 15.3348 3.54528C15.2202 3.49815 15.1167 3.43238 15.0268 3.35291H14.9325C14.0277 4.35035 12.5776 4.9499 10.9998 4.9499C9.42198 4.9499 7.97241 4.35035 7.06705 3.35291H6.97278C6.88345 3.43238 6.77987 3.4976 6.66533 3.54528C6.49928 3.61378 6.32281 3.6379 6.15237 3.62474L2.6449 7.1344L3.76181 8.2524L5.47005 6.54306C5.78353 6.22903 6.25485 6.13532 6.66478 6.30521C7.07472 6.4751 7.34161 6.87462 7.34161 7.31799V18.6465H7.34216Z" fill="#F1E3FF"/>
</g>
<defs>
<clipPath id="clip0">
<rect width="22" height="22" fill="white"/>
</clipPath>
</defs>
</svg>
