<svg width="20" height="20" viewBox="0 0 20 20" fill="none" xmlns="http://www.w3.org/2000/svg">
<path d="M18.125 17H1.875C0.84375 17 0 16.2125 0 15.25V4.75C0 3.7875 0.84375 3 1.875 3H18.125C19.1562 3 20 3.7875 20 4.75V15.25C20 16.2125 19.1562 17 18.125 17ZM1.875 15.8333H18.125C18.4638 15.8333 18.75 15.5662 18.75 15.25V13.5H1.25V15.25C1.25 15.5662 1.53621 15.8333 1.875 15.8333ZM18.125 4.16667H1.875C1.53621 4.16667 1.25 4.4338 1.25 4.75V10H18.75V4.75C18.75 4.4338 18.4638 4.16667 18.125 4.16667ZM2.5 7.66667H3.75V5.33333H2.5V7.66667ZM5 7.66667H6.25V5.33333H5V7.66667ZM7.5 7.66667H8.75V5.33333H7.5V7.66667Z" fill="#F1E3FF"/>
</svg>
