<svg width="20" height="20" viewBox="0 0 20 20" fill="none" xmlns="http://www.w3.org/2000/svg">
<g clip-path="url(#clip0)">
<path d="M0 2C0 0.9 0.9 0 2 0H18C19.1046 0 20 0.895437 20 2V4C20 5.10456 19.1046 6 18 6H2C0.895437 6 0 5.10456 0 4V2ZM0 9C0 7.9 0.9 7 2 7H18C19.1046 7 20 7.89544 20 9V11C20 12.1046 19.1046 13 18 13H2C0.895437 13 0 12.1046 0 11V9ZM0 16C0 14.9 0.9 14 2 14H18C19.1046 14 20 14.8954 20 16V18C20 19.1046 19.1046 20 18 20H2C0.895437 20 0 19.1046 0 18V16ZM12 2V4H14V2H12ZM16 2V4H18V2H16ZM12 9V11H14V9H12ZM16 9V11H18V9H16ZM12 16V18H14V16H12ZM16 16V18H18V16H16Z" fill="#F1E3FF"/>
</g>
<defs>
<clipPath id="clip0">
<rect width="20" height="20" fill="white"/>
</clipPath>
</defs>
</svg>
