<svg width="20" height="20" viewBox="0 0 20 20" fill="none" xmlns="http://www.w3.org/2000/svg">
<g clip-path="url(#clip0)">
<path d="M3.45467 17.6C3.45467 18.9248 4.55349 20 5.90921 20H14.091C15.4459 20 16.5456 18.9248 16.5456 17.6L18.1819 4.8H1.8183L3.45467 17.6ZM12.4547 7.2H14.091V17.6H12.4547V7.2ZM9.18194 7.2H10.8183V17.6H9.18194V7.2ZM5.90921 7.2H7.54558V17.6H5.90921V7.2ZM17.7729 1.6H12.4547C12.4547 1.6 12.0881 0 11.6365 0H8.36376C7.9113 0 7.54558 1.6 7.54558 1.6H2.22739C1.54912 1.6 1.00012 2.1368 1.00012 2.8C1.00012 3.4632 1.00012 4 1.00012 4H19.0001C19.0001 4 19.0001 3.4632 19.0001 2.8C19.0001 2.1368 18.4503 1.6 17.7729 1.6Z" fill="#F1E3FF"/>
</g>
<defs>
<clipPath id="clip0">
<rect width="20" height="20" fill="white"/>
</clipPath>
</defs>
</svg>
