<svg width="20" height="20" viewBox="0 0 20 20" fill="none" xmlns="http://www.w3.org/2000/svg">
<g clip-path="url(#clip0)">
<path d="M18.5393 11.919C17.4516 10.1015 18.1057 7.77242 20 6.71414L17.9628 3.31C17.3807 3.63918 16.704 3.82793 15.9819 3.82793C13.8048 3.82793 12.0399 2.11414 12.0399 0H7.9654C7.97079 0.652539 7.80194 1.3141 7.43988 1.91898C6.35222 3.73648 3.93428 4.35457 2.03717 3.30098L0 6.70512C0.586507 7.02684 1.09426 7.49785 1.45536 8.10117C2.54128 9.91578 1.89087 12.2402 0.0036037 13.3009L2.04081 16.705C2.62084 16.3789 3.29432 16.1922 4.01271 16.1922C6.18292 16.1922 7.94322 17.8952 7.95447 20H12.0289C12.0272 19.354 12.1964 18.6998 12.5546 18.1012C13.6405 16.2866 16.0525 15.6677 17.9483 16.7143L19.9855 13.3102C19.4028 12.9886 18.8985 12.5192 18.5393 11.919V11.919ZM9.99998 14.0495C7.68173 14.0495 5.80239 12.2365 5.80239 10C5.80239 7.76352 7.68169 5.95051 9.99998 5.95051C12.3183 5.95051 14.1975 7.76352 14.1975 10C14.1974 12.2365 12.3182 14.0495 9.99998 14.0495Z" fill="#F1E3FF"/>
</g>
<defs>
<clipPath id="clip0">
<rect width="20" height="20" fill="white"/>
</clipPath>
</defs>
</svg>
