<svg width="20" height="20" viewBox="0 0 20 20" fill="none" xmlns="http://www.w3.org/2000/svg">
<path d="M0 7.5H7.5L4.69668 4.69668C6.11328 3.28016 7.99668 2.5 10 2.5C12.0033 2.5 13.8867 3.28016 15.3033 4.69668C16.7198 6.11328 17.5 7.99668 17.5 10C17.5 12.0033 16.7198 13.8867 15.3033 15.3033C13.8867 16.7198 12.0033 17.5 10 17.5C7.99668 17.5 6.11328 16.7198 4.69672 15.3033C4.57844 15.185 4.46508 15.0632 4.35578 14.9387L2.47453 16.5848C4.30746 18.6779 6.99922 20 10 20C15.5229 20 20 15.5229 20 10C20 4.47715 15.5229 0 10 0C7.23855 0 4.73891 1.11965 2.92937 2.92937L0 0V7.5H0Z" fill="#F1E3FF"/>
</svg>
