<svg width="20" height="20" viewBox="0 0 20 20" fill="none" xmlns="http://www.w3.org/2000/svg">
<path fill-rule="evenodd" clip-rule="evenodd" d="M0 20H20V0H0V20ZM5.28996 5.49474C5.88138 5.49474 6.26672 5.78294 6.53202 6.24092L7.55536 5.01307C7.09739 4.39796 6.04878 4 5.2418 4C3.71153 4 2.39761 5.21758 2.15678 6.72416C1.92779 8.13362 2.69925 8.72425 3.78338 9.20591C3.82479 9.22291 3.86673 9.23987 3.90896 9.25694C4.5554 9.51824 5.26926 9.80679 5.13362 10.6888C5.02465 11.3876 4.47035 12.0019 3.74706 12.0019C2.98824 12.0019 2.45841 11.375 2.32576 10.6762L1 11.7966C1.45798 12.8452 2.26496 13.5685 3.51886 13.5685C5.37445 13.5685 6.71206 12.2791 7.00105 10.459C7.28298 8.67504 6.12845 8.15383 5.17074 7.72147C4.49223 7.41515 3.9125 7.15344 4.01237 6.51886C4.1087 5.92902 4.72381 5.49474 5.28996 5.49474ZM9.05957 10.6154L9.56572 7.41034H7.87831L7.32401 10.8925C7.04685 12.6155 7.79461 13.5196 9.55387 13.5196C11.3131 13.5196 12.3499 12.6155 12.6263 10.8917L13.1806 7.40955H11.4932L10.9878 10.6154C10.8788 11.2905 10.638 12.0975 9.78286 12.0975C8.92692 12.0975 8.9514 11.2905 9.05957 10.6154ZM16.5064 8.71162C17.3734 8.71162 17.7595 9.56677 17.6395 10.3619H17.6387C17.5179 11.1578 16.8436 12.0248 15.9758 12.0248C15.108 12.0248 14.7227 11.1578 14.8435 10.3619C14.9635 9.56677 15.6378 8.71162 16.5064 8.71162ZM17.1444 7.21767C16.5183 7.21767 15.855 7.49403 15.397 7.95201L15.4807 7.41034H13.7941L12.3609 16.4838H14.0476L14.6263 12.7726H14.65C14.9161 13.2543 15.506 13.5196 16.1084 13.5196C17.8559 13.5196 19.0971 11.953 19.3498 10.3382C19.6033 8.78347 18.82 7.21767 17.1444 7.21767Z" fill="#F1E3FF"/>
</svg>
