<svg width="20" height="20" viewBox="0 0 20 20" fill="none" xmlns="http://www.w3.org/2000/svg">
<path d="M7.5 1.25H20V3.75H7.5V1.25ZM7.5 8.75H20V11.25H7.5V8.75ZM7.5 16.25H20V18.75H7.5V16.25ZM0 2.5C0 1.1193 1.1193 0 2.5 0C3.8807 0 5 1.1193 5 2.5C5 3.8807 3.8807 5 2.5 5C1.1193 5 0 3.8807 0 2.5ZM0 10C0 8.6193 1.1193 7.5 2.5 7.5C3.8807 7.5 5 8.6193 5 10C5 11.3807 3.8807 12.5 2.5 12.5C1.1193 12.5 0 11.3807 0 10ZM0 17.5C0 16.1193 1.1193 15 2.5 15C3.8807 15 5 16.1193 5 17.5C5 18.8807 3.8807 20 2.5 20C1.1193 20 0 18.8807 0 17.5Z" fill="#F1E3FF"/>
</svg>
