<svg width="22" height="22" viewBox="0 0 22 22" fill="none" xmlns="http://www.w3.org/2000/svg">
<path d="M21.0833 11C21.0833 8.21609 19.954 5.69342 18.1298 3.87017C16.3056 2.04692 13.7839 0.916672 11 0.916672C8.21604 0.916672 5.69338 2.04601 3.87013 3.87017C2.04688 5.69434 0.916626 8.21609 0.916626 11C0.916626 13.7839 2.04596 16.3066 3.87013 18.1298C5.69429 19.9531 8.21604 21.0833 11 21.0833C13.7839 21.0833 16.3065 19.954 18.1298 18.1298C19.953 16.3057 21.0833 13.7839 21.0833 11ZM19.25 11C19.25 13.2788 18.3278 15.3395 16.8336 16.8337C15.3395 18.3278 13.2788 19.25 11 19.25C8.72113 19.25 6.66046 18.3278 5.16629 16.8337C3.67213 15.3395 2.74996 13.2788 2.74996 11C2.74996 8.72117 3.67213 6.66051 5.16629 5.16634C6.66046 3.67217 8.72113 2.75001 11 2.75001C13.2788 2.75001 15.3395 3.67217 16.8336 5.16634C18.3278 6.66051 19.25 8.72117 19.25 11ZM10.0833 5.50001V11C10.0833 11.3566 10.2868 11.6664 10.5902 11.8195L14.2569 13.6528C14.7097 13.8793 15.2606 13.6959 15.487 13.2431C15.7135 12.7903 15.5301 12.2393 15.0773 12.0129L11.9166 10.4335V5.50001C11.9166 4.99401 11.506 4.58334 11 4.58334C10.494 4.58334 10.0833 4.99401 10.0833 5.50001Z" fill="#F1E3FF"/>
</svg>
