<svg width="20" height="16" viewBox="0 0 20 16" fill="none" xmlns="http://www.w3.org/2000/svg">
<g clip-path="url(#clip0)">
<path d="M20.0001 1.8923C19.2659 2.21538 18.4731 2.43077 17.6451 2.52692C18.4926 2.02692 19.1409 1.23461 19.4494 0.292305C18.6566 0.753843 17.7779 1.0923 16.8445 1.27307C16.0946 0.488459 15.0284 -2.86102e-06 13.849 -2.86102e-06C11.5838 -2.86102e-06 9.74822 1.80769 9.74822 4.03846C9.74822 4.35384 9.78337 4.66154 9.85367 4.95769C6.44418 4.78846 3.42133 3.18077 1.39829 0.734612C1.04679 1.33077 0.843707 2.02692 0.843707 2.76538C0.843707 4.16538 1.56622 5.40384 2.66757 6.12692C1.99583 6.10769 1.36314 5.92307 0.808558 5.62307C0.808558 5.63846 0.808558 5.65769 0.808558 5.67307C0.808558 7.63077 2.22234 9.26538 4.10088 9.63461C3.7572 9.72692 3.39399 9.77692 3.01906 9.77692C2.75349 9.77692 2.49963 9.75 2.24578 9.70384C2.76911 11.3077 4.28444 12.4769 6.07706 12.5115C4.67109 13.5962 2.9058 14.2423 0.980399 14.2423C0.648433 14.2423 0.324278 14.2231 0.00012207 14.1846C1.82008 15.3346 3.97591 16 6.29186 16C13.8373 16 17.9654 9.84231 17.9654 4.50384C17.9654 4.32692 17.9615 4.15384 17.9536 3.98077C18.7543 3.41538 19.4494 2.70384 20.0001 1.8923Z" fill="#F1E3FF"/>
</g>
<defs>
<clipPath id="clip0">
<rect width="20" height="16" fill="white"/>
</clipPath>
</defs>
</svg>
