<svg width="20" height="20" viewBox="0 0 20 20" fill="none" xmlns="http://www.w3.org/2000/svg">
<path d="M9.9375 0.25C4.58687 0.25 0.25 4.58687 0.25 9.9375C0.25 15.2881 4.58687 19.625 9.9375 19.625C15.2881 19.625 19.625 15.2881 19.625 9.9375C19.625 4.58687 15.2881 0.25 9.9375 0.25ZM18.3594 9.625H14.6119C14.5775 8.24062 14.3312 6.91813 13.8944 5.7075C14.7381 5.35563 15.5181 4.8875 16.2294 4.33437C17.4937 5.75375 18.2844 7.59688 18.3594 9.625ZM9.59188 18.3575C8.55312 17.4925 7.68188 16.3694 7.04438 15.065C7.8625 14.8094 8.72937 14.6694 9.625 14.6406V18.3588C9.61375 18.3588 9.60312 18.3581 9.59188 18.3575ZM10.2819 1.5175C11.4606 2.49875 12.4225 3.81313 13.0731 5.34625C12.1819 5.65063 11.235 5.8275 10.2494 5.85875V1.51562C10.2612 1.51625 10.2713 1.51688 10.2819 1.5175ZM11.3231 1.62375C13.0481 1.91062 14.5956 2.71625 15.8006 3.8825C15.1463 4.38437 14.4312 4.80937 13.6581 5.13125C13.0894 3.78312 12.2912 2.59125 11.3231 1.62375ZM9.625 1.51562V5.85875C8.63937 5.82688 7.69187 5.65063 6.80125 5.34625C7.45188 3.81313 8.41375 2.49875 9.5925 1.5175C9.60375 1.51688 9.61375 1.51625 9.625 1.51562ZM6.21625 5.13188C5.44437 4.81 4.72875 4.385 4.07437 3.88313C5.27875 2.71688 6.82688 1.91125 8.55188 1.62437C7.58313 2.59125 6.78562 3.78312 6.21625 5.13188ZM6.56562 5.9225C7.52937 6.25688 8.55625 6.45188 9.625 6.48438V9.625H5.88812C5.92188 8.31625 6.15375 7.06563 6.56562 5.9225ZM9.625 10.25V14.0156C8.63937 14.0456 7.68625 14.2069 6.78813 14.4963C6.24688 13.2075 5.9275 11.7719 5.88812 10.25H9.625ZM8.55188 18.2512C7.00625 17.9944 5.6025 17.3213 4.46125 16.3438C5.07687 15.9169 5.7425 15.5556 6.45375 15.2812C6.99875 16.4112 7.71187 17.4144 8.55188 18.2512ZM10.25 18.3594V14.6412C11.145 14.67 12.0125 14.81 12.8306 15.0656C12.1925 16.37 11.3219 17.4931 10.2831 18.3581C10.2725 18.3581 10.2612 18.3587 10.25 18.3594ZM13.4212 15.2812C14.1319 15.5556 14.7969 15.9175 15.4137 16.3438C14.2725 17.3206 12.8687 17.9944 11.3231 18.2512C12.1631 17.4144 12.8756 16.4112 13.4212 15.2812ZM13.0869 14.4963C12.1881 14.2069 11.235 14.0456 10.25 14.0156V10.25H13.9869C13.9475 11.7719 13.6275 13.2075 13.0869 14.4963ZM10.25 9.625V6.48438C11.3181 6.45188 12.345 6.2575 13.3094 5.92312C13.7206 7.06625 13.9525 8.31688 13.9869 9.62563H10.25V9.625ZM3.64625 4.33437C4.3575 4.8875 5.1375 5.35563 5.98062 5.7075C5.54375 6.91813 5.2975 8.24062 5.26312 9.625H1.51562C1.59063 7.59688 2.38125 5.75375 3.64625 4.33437ZM1.51562 10.25H5.26312C5.30188 11.8469 5.63562 13.355 6.2025 14.7106C5.41062 15.0194 4.6725 15.4306 3.99125 15.9175C2.52375 14.4569 1.5975 12.46 1.51562 10.25ZM15.8837 15.9169C15.2025 15.4306 14.4644 15.0188 13.6719 14.71C14.2394 13.3544 14.5725 11.8462 14.6119 10.2494H18.3594C18.2775 12.46 17.3506 14.4569 15.8837 15.9169Z" fill="#F1E3FF"/>
</svg>
